<svg width="36" height="36" viewBox="0 0 36 36" fill="none" xmlns="http://www.w3.org/2000/svg">
<circle cx="18" cy="18" r="18" fill="#0A0A0A"/>
<path d="M8.85263 27.0338C8.31901 27.6675 8.40012 28.6137 9.0338 29.1474C9.66747 29.681 10.6137 29.5999 11.1474 28.9662L8.85263 27.0338ZM27.4945 8.8719C27.4238 8.0465 26.6973 7.43473 25.8719 7.50548L12.4212 8.65839C11.5958 8.72914 10.9841 9.45562 11.0548 10.281C11.1255 11.1064 11.852 11.7182 12.6774 11.6474L24.6336 10.6226L25.6584 22.5788C25.7291 23.4042 26.4556 24.0159 27.281 23.9452C28.1064 23.8745 28.7182 23.148 28.6474 22.3226L27.4945 8.8719ZM11.1474 28.9662L27.1474 9.9662L24.8526 8.0338L8.85263 27.0338L11.1474 28.9662Z" fill="#D9D9D9"/>
</svg>
