<svg width="36" height="36" viewBox="0 0 36 36" fill="none" xmlns="http://www.w3.org/2000/svg">
<circle cx="18" cy="18" r="18" fill="#D9D9D9"/>
<path d="M9.81597 26.0791C9.30737 26.733 9.42517 27.6754 10.0791 28.184C10.733 28.6926 11.6754 28.5748 12.184 27.9209L9.81597 26.0791ZM26.4884 8.81395C26.3857 7.99192 25.636 7.40883 24.8139 7.51158L11.4182 9.18605C10.5962 9.28881 10.0131 10.0385 10.1158 10.8605C10.2186 11.6826 10.9683 12.2656 11.7903 12.1629L23.6976 10.6745L25.1861 22.5818C25.2888 23.4038 26.0385 23.9869 26.8605 23.8842C27.6826 23.7814 28.2656 23.0317 28.1629 22.2097L26.4884 8.81395ZM12.184 27.9209L26.184 9.92091L23.816 8.07909L9.81597 26.0791L12.184 27.9209Z" fill="#0A0A0A"/>
</svg>
